<svg viewBox="0 0 800 300" xmlns="http://www.w3.org/2000/svg"><g fill="#333"><path d="m239.25 69.58h117.84l-5.74 33.89h-76.11l-5.73 35.4h68.61l-5.73 34h-68.61l-11.47 69.37h-41.72z"/><path d="m359 112.74h41.22l-21.54 129.47h-41.22zm5-34.89c1.7-10.85 12.41-19.64 24-19.64s19.85 8.79 18.41 19.64-12.22 19.72-23.85 19.72-20.14-8.94-18.56-19.72z"/><path d="m421.61 69.58h41.21l-10.7 65.33h.88c6.74-11.89 20.15-23.85 40.63-23.85 27.06 0 48 20.82 40.37 66.5-7.25 44.08-34.22 66.5-62.88 66.5-19.55 0-29.33-10.87-32.36-22.84h-1.61l-3.37 21h-40.78zm40.71 142.42c15.17 0 26-13.57 29.33-34.47s-2.7-34.23-18-34.23c-15.09 0-26.13 13.07-29.5 34.23-3.41 20.93 3.08 34.47 18.17 34.47z"/><path d="m538.79 178c6.65-40.12 36.32-66.92 75.35-66.92 36.75 0 58.67 23.51 51.59 66.08l-1.61 10.28h-86.22l-.26 1.52c-2.61 16.44 5.14 26 21.24 26 10.71 0 20-4.55 24.7-13.23l37.59 1.09c-9.18 25.46-33.88 41.89-68 41.89-40.65-.06-61.38-25.34-54.38-66.71zm90.86-14.5c2.11-13.23-5.82-22.67-19.3-22.67-13.32 0-25.12 9.86-28.07 22.67z"/><path d="m685.8 112.74h40l-4 23.6h1.35c7.67-17.11 20.39-25.34 34.55-25.34a49 49 0 0 1 11.3 1.4l-6.07 35.91c-3.79-1.43-10.79-2.19-15.93-2.19-14.58 0-27.23 10.37-29.92 25.79l-11.64 70.3h-41.21z"/></g><path d="m213.77 115.41h-134.51l-10.76 15.27 142.78-.08z" fill="#00acd7"/><path d="m209.02 147.06h-174.07l-11.07 15.21 182.65-.13z" fill="#00acd7"/><path d="m204.27 178.7h-74.37l-10 15.27 81.88-.06z" fill="#00acd7"/></svg>