<svg class="w-full" viewBox="0 0 304 147" xmlns="http://www.w3.org/2000/svg">
    <g fill="none" fill-rule="evenodd">
        <g fill="#4b5f84">
            <ellipse cx="8" cy="24.818" rx="2" ry="1.909"></ellipse>
            <ellipse cx="2" cy="30.545" rx="2" ry="1.909"></ellipse>
            <ellipse cx="8" cy="30.545" rx="2" ry="1.909"></ellipse>
            <ellipse cx="2" cy="36.273" rx="2" ry="1.909"></ellipse>
            <ellipse cx="8" cy="36.273" rx="2" ry="1.909"></ellipse>
            <ellipse cx="8" cy="42" rx="2" ry="1.909"></ellipse>
            <ellipse cx="14" cy="24.818" rx="2" ry="1.909"></ellipse>
            <ellipse cx="14" cy="30.545" rx="2" ry="1.909"></ellipse>
            <ellipse cx="20" cy="30.545" rx="2" ry="1.909"></ellipse>
            <ellipse cx="14" cy="36.273" rx="2" ry="1.909"></ellipse>
            <ellipse cx="20" cy="36.273" rx="2" ry="1.909"></ellipse>
            <ellipse cx="14" cy="42" rx="2" ry="1.909"></ellipse>
            <ellipse cx="26" cy="30.545" rx="2" ry="1.909"></ellipse>
            <ellipse cx="32" cy="30.545" rx="2" ry="1.909"></ellipse>
            <ellipse cx="26" cy="36.273" rx="2" ry="1.909"></ellipse>
            <ellipse cx="32" cy="36.273" rx="2" ry="1.909"></ellipse>
            <ellipse cx="26" cy="42" rx="2" ry="1.909"></ellipse>
            <ellipse cx="32" cy="42" rx="2" ry="1.909"></ellipse>
            <ellipse cx="32" cy="47.727" rx="2" ry="1.909"></ellipse>
            <ellipse cx="38" cy="19.091" rx="2" ry="1.909"></ellipse>
            <ellipse cx="44" cy="19.091" rx="2" ry="1.909"></ellipse>
            <ellipse cx="38" cy="30.545" rx="2" ry="1.909"></ellipse>
            <ellipse cx="44" cy="30.545" rx="2" ry="1.909"></ellipse>
            <ellipse cx="38" cy="36.273" rx="2" ry="1.909"></ellipse>
            <ellipse cx="44" cy="36.273" rx="2" ry="1.909"></ellipse>
            <ellipse cx="38" cy="42" rx="2" ry="1.909"></ellipse>
            <ellipse cx="44" cy="42" rx="2" ry="1.909"></ellipse>
            <ellipse cx="38" cy="47.727" rx="2" ry="1.909"></ellipse>
            <ellipse cx="44" cy="47.727" rx="2" ry="1.909"></ellipse>
            <ellipse cx="38" cy="53.455" rx="2" ry="1.909"></ellipse>
            <ellipse cx="44" cy="53.455" rx="2" ry="1.909"></ellipse>
            <ellipse cx="38" cy="59.182" rx="2" ry="1.909"></ellipse>
            <ellipse cx="44" cy="59.182" rx="2" ry="1.909"></ellipse>
            <ellipse cx="44" cy="64.909" rx="2" ry="1.909"></ellipse>
            <ellipse cx="50" cy="19.091" rx="2" ry="1.909"></ellipse>
            <ellipse cx="50" cy="24.818" rx="2" ry="1.909"></ellipse>
            <ellipse cx="56" cy="24.818" rx="2" ry="1.909"></ellipse>
            <ellipse cx="50" cy="30.545" rx="2" ry="1.909"></ellipse>
            <ellipse cx="56" cy="30.545" rx="2" ry="1.909"></ellipse>
            <ellipse cx="50" cy="36.273" rx="2" ry="1.909"></ellipse>
            <ellipse cx="56" cy="36.273" rx="2" ry="1.909"></ellipse>
            <ellipse cx="50" cy="42" rx="2" ry="1.909"></ellipse>
            <ellipse cx="56" cy="42" rx="2" ry="1.909"></ellipse>
            <ellipse cx="50" cy="47.727" rx="2" ry="1.909"></ellipse>
            <ellipse cx="56" cy="47.727" rx="2" ry="1.909"></ellipse>
            <ellipse cx="50" cy="53.455" rx="2" ry="1.909"></ellipse>
            <ellipse cx="56" cy="53.455" rx="2" ry="1.909"></ellipse>
            <ellipse cx="50" cy="59.182" rx="2" ry="1.909"></ellipse>
            <ellipse cx="56" cy="59.182" rx="2" ry="1.909"></ellipse>
            <ellipse cx="50" cy="64.909" rx="2" ry="1.909"></ellipse>
            <ellipse cx="56" cy="64.909" rx="2" ry="1.909"></ellipse>
            <ellipse cx="62" cy="13.364" rx="2" ry="1.909"></ellipse>
            <ellipse cx="68" cy="13.364" rx="2" ry="1.909"></ellipse>
            <ellipse cx="62" cy="19.091" rx="2" ry="1.909"></ellipse>
            <ellipse cx="62" cy="24.818" rx="2" ry="1.909"></ellipse>
            <ellipse cx="62" cy="30.545" rx="2" ry="1.909"></ellipse>
            <ellipse cx="68" cy="30.545" rx="2" ry="1.909"></ellipse>
            <ellipse cx="62" cy="36.273" rx="2" ry="1.909"></ellipse>
            <ellipse cx="68" cy="36.273" rx="2" ry="1.909"></ellipse>
            <ellipse cx="62" cy="42" rx="2" ry="1.909"></ellipse>
            <ellipse cx="62" cy="47.727" rx="2" ry="1.909"></ellipse>
            <ellipse cx="68" cy="47.727" rx="2" ry="1.909"></ellipse>
            <ellipse cx="62" cy="53.455" rx="2" ry="1.909"></ellipse>
            <ellipse cx="68" cy="53.455" rx="2" ry="1.909"></ellipse>
            <ellipse cx="62" cy="59.182" rx="2" ry="1.909"></ellipse>
            <ellipse cx="68" cy="59.182" rx="2" ry="1.909"></ellipse>
            <ellipse cx="62" cy="64.909" rx="2" ry="1.909"></ellipse>
            <ellipse cx="68" cy="64.909" rx="2" ry="1.909"></ellipse>
            <ellipse cx="74" cy="7.636" rx="2" ry="1.909"></ellipse>
            <ellipse cx="80" cy="7.636" rx="2" ry="1.909"></ellipse>
            <ellipse cx="74" cy="13.364" rx="2" ry="1.909"></ellipse>
            <ellipse cx="80" cy="13.364" rx="2" ry="1.909"></ellipse>
            <ellipse cx="74" cy="24.818" rx="2" ry="1.909"></ellipse>
            <ellipse cx="80" cy="24.818" rx="2" ry="1.909"></ellipse>
            <ellipse cx="74" cy="30.545" rx="2" ry="1.909"></ellipse>
            <ellipse cx="80" cy="36.273" rx="2" ry="1.909"></ellipse>
            <ellipse cx="80" cy="42" rx="2" ry="1.909"></ellipse>
            <ellipse cx="80" cy="47.727" rx="2" ry="1.909"></ellipse>
            <ellipse cx="74" cy="53.455" rx="2" ry="1.909"></ellipse>
            <ellipse cx="80" cy="53.455" rx="2" ry="1.909"></ellipse>
            <ellipse cx="74" cy="59.182" rx="2" ry="1.909"></ellipse>
            <ellipse cx="80" cy="59.182" rx="2" ry="1.909"></ellipse>
            <ellipse cx="74" cy="64.909" rx="2" ry="1.909"></ellipse>
            <ellipse cx="80" cy="64.909" rx="2" ry="1.909"></ellipse>
            <ellipse cx="86" cy="7.636" rx="2" ry="1.909"></ellipse>
            <ellipse cx="92" cy="7.636" rx="2" ry="1.909"></ellipse>
            <ellipse cx="86" cy="13.364" rx="2" ry="1.909"></ellipse>
            <ellipse cx="92" cy="13.364" rx="2" ry="1.909"></ellipse>
            <ellipse cx="86" cy="30.545" rx="2" ry="1.909"></ellipse>
            <ellipse cx="86" cy="36.273" rx="2" ry="1.909"></ellipse>
            <ellipse cx="86" cy="42" rx="2" ry="1.909"></ellipse>
            <ellipse cx="86" cy="47.727" rx="2" ry="1.909"></ellipse>
            <ellipse cx="92" cy="47.727" rx="2" ry="1.909"></ellipse>
            <ellipse cx="86" cy="53.455" rx="2" ry="1.909"></ellipse>
            <ellipse cx="92" cy="53.455" rx="2" ry="1.909"></ellipse>
            <ellipse cx="86" cy="59.182" rx="2" ry="1.909"></ellipse>
            <ellipse cx="92" cy="59.182" rx="2" ry="1.909"></ellipse>
            <ellipse cx="98" cy="7.636" rx="2" ry="1.909"></ellipse>
            <ellipse cx="104" cy="7.636" rx="2" ry="1.909"></ellipse>
            <ellipse cx="98" cy="13.364" rx="2" ry="1.909"></ellipse>
            <ellipse cx="104" cy="13.364" rx="2" ry="1.909"></ellipse>
            <ellipse cx="98" cy="19.091" rx="2" ry="1.909"></ellipse>
            <ellipse cx="104" cy="19.091" rx="2" ry="1.909"></ellipse>
            <ellipse cx="98" cy="24.818" rx="2" ry="1.909"></ellipse>
            <ellipse cx="104" cy="24.818" rx="2" ry="1.909"></ellipse>
            <ellipse cx="104" cy="30.545" rx="2" ry="1.909"></ellipse>
            <ellipse cx="104" cy="36.273" rx="2" ry="1.909"></ellipse>
            <ellipse cx="98" cy="47.727" rx="2" ry="1.909"></ellipse>
            <ellipse cx="98" cy="53.455" rx="2" ry="1.909"></ellipse>
            <ellipse cx="116" cy="1.909" rx="2" ry="1.909"></ellipse>
            <ellipse cx="110" cy="7.636" rx="2" ry="1.909"></ellipse>
            <ellipse cx="116" cy="7.636" rx="2" ry="1.909"></ellipse>
            <ellipse cx="110" cy="13.364" rx="2" ry="1.909"></ellipse>
            <ellipse cx="116" cy="13.364" rx="2" ry="1.909"></ellipse>
            <ellipse cx="110" cy="19.091" rx="2" ry="1.909"></ellipse>
            <ellipse cx="116" cy="19.091" rx="2" ry="1.909"></ellipse>
            <ellipse cx="110" cy="24.818" rx="2" ry="1.909"></ellipse>
            <ellipse cx="116" cy="24.818" rx="2" ry="1.909"></ellipse>
            <ellipse cx="110" cy="30.545" rx="2" ry="1.909"></ellipse>
            <ellipse cx="116" cy="30.545" rx="2" ry="1.909"></ellipse>
            <ellipse cx="110" cy="36.273" rx="2" ry="1.909"></ellipse>
            <ellipse cx="122" cy="7.636" rx="2" ry="1.909"></ellipse>
            <ellipse cx="128" cy="7.636" rx="2" ry="1.909"></ellipse>
            <ellipse cx="122" cy="13.364" rx="2" ry="1.909"></ellipse>
            <ellipse cx="128" cy="13.364" rx="2" ry="1.909"></ellipse>
            <ellipse cx="122" cy="19.091" rx="2" ry="1.909"></ellipse>
            <ellipse cx="128" cy="19.091" rx="2" ry="1.909"></ellipse>
            <ellipse cx="122" cy="24.818" rx="2" ry="1.909"></ellipse>
            <ellipse cx="122" cy="30.545" rx="2" ry="1.909"></ellipse>
            <ellipse cx="128" cy="36.273" rx="2" ry="1.909"></ellipse>
            <ellipse cx="134" cy="7.636" rx="2" ry="1.909"></ellipse>
            <ellipse cx="140" cy="42" rx="2" ry="1.909"></ellipse>
            <ellipse cx="140" cy="47.727" rx="2" ry="1.909"></ellipse>
            <ellipse cx="140" cy="53.455" rx="2" ry="1.909"></ellipse>
            <ellipse cx="140" cy="59.182" rx="2" ry="1.909"></ellipse>
            <ellipse cx="152" cy="36.273" rx="2" ry="1.909"></ellipse>
            <ellipse cx="146" cy="42" rx="2" ry="1.909"></ellipse>
            <ellipse cx="152" cy="42" rx="2" ry="1.909"></ellipse>
            <ellipse cx="146" cy="47.727" rx="2" ry="1.909"></ellipse>
            <ellipse cx="152" cy="47.727" rx="2" ry="1.909"></ellipse>
            <ellipse cx="146" cy="53.455" rx="2" ry="1.909"></ellipse>
            <ellipse cx="152" cy="53.455" rx="2" ry="1.909"></ellipse>
            <ellipse cx="146" cy="59.182" rx="2" ry="1.909"></ellipse>
            <ellipse cx="152" cy="59.182" rx="2" ry="1.909"></ellipse>
            <ellipse cx="152" cy="64.909" rx="2" ry="1.909"></ellipse>
            <ellipse cx="158" cy="13.364" rx="2" ry="1.909"></ellipse>
            <ellipse cx="164" cy="13.364" rx="2" ry="1.909"></ellipse>
            <ellipse cx="158" cy="30.545" rx="2" ry="1.909"></ellipse>
            <ellipse cx="164" cy="30.545" rx="2" ry="1.909"></ellipse>
            <ellipse cx="158" cy="36.273" rx="2" ry="1.909"></ellipse>
            <ellipse cx="164" cy="36.273" rx="2" ry="1.909"></ellipse>
            <ellipse cx="158" cy="42" rx="2" ry="1.909"></ellipse>
            <ellipse cx="164" cy="42" rx="2" ry="1.909"></ellipse>
            <ellipse cx="158" cy="47.727" rx="2" ry="1.909"></ellipse>
            <ellipse cx="164" cy="47.727" rx="2" ry="1.909"></ellipse>
            <ellipse cx="158" cy="53.455" rx="2" ry="1.909"></ellipse>
            <ellipse cx="164" cy="53.455" rx="2" ry="1.909"></ellipse>
            <ellipse cx="164" cy="59.182" rx="2" ry="1.909"></ellipse>
            <ellipse cx="170" cy="30.545" rx="2" ry="1.909"></ellipse>
            <ellipse cx="176" cy="30.545" rx="2" ry="1.909"></ellipse>
            <ellipse cx="170" cy="36.273" rx="2" ry="1.909"></ellipse>
            <ellipse cx="176" cy="36.273" rx="2" ry="1.909"></ellipse>
            <ellipse cx="170" cy="42" rx="2" ry="1.909"></ellipse>
            <ellipse cx="176" cy="42" rx="2" ry="1.909"></ellipse>
            <ellipse cx="170" cy="47.727" rx="2" ry="1.909"></ellipse>
            <ellipse cx="176" cy="47.727" rx="2" ry="1.909"></ellipse>
            <ellipse cx="170" cy="53.455" rx="2" ry="1.909"></ellipse>
            <ellipse cx="176" cy="53.455" rx="2" ry="1.909"></ellipse>
            <ellipse cx="170" cy="59.182" rx="2" ry="1.909"></ellipse>
            <ellipse cx="176" cy="59.182" rx="2" ry="1.909"></ellipse>
            <ellipse cx="170" cy="64.909" rx="2" ry="1.909"></ellipse>
            <ellipse cx="176" cy="64.909" rx="2" ry="1.909"></ellipse>
            <ellipse cx="188" cy="24.818" rx="2" ry="1.909"></ellipse>
            <ellipse cx="182" cy="30.545" rx="2" ry="1.909"></ellipse>
            <ellipse cx="188" cy="30.545" rx="2" ry="1.909"></ellipse>
            <ellipse cx="182" cy="36.273" rx="2" ry="1.909"></ellipse>
            <ellipse cx="188" cy="36.273" rx="2" ry="1.909"></ellipse>
            <ellipse cx="182" cy="42" rx="2" ry="1.909"></ellipse>
            <ellipse cx="188" cy="42" rx="2" ry="1.909"></ellipse>
            <ellipse cx="182" cy="47.727" rx="2" ry="1.909"></ellipse>
            <ellipse cx="188" cy="47.727" rx="2" ry="1.909"></ellipse>
            <ellipse cx="182" cy="53.455" rx="2" ry="1.909"></ellipse>
            <ellipse cx="188" cy="53.455" rx="2" ry="1.909"></ellipse>
            <ellipse cx="182" cy="59.182" rx="2" ry="1.909"></ellipse>
            <ellipse cx="188" cy="59.182" rx="2" ry="1.909"></ellipse>
            <ellipse cx="182" cy="64.909" rx="2" ry="1.909"></ellipse>
            <ellipse cx="188" cy="64.909" rx="2" ry="1.909"></ellipse>
            <ellipse cx="50" cy="70.636" rx="2" ry="1.909"></ellipse>
            <ellipse cx="56" cy="70.636" rx="2" ry="1.909"></ellipse>
            <ellipse cx="50" cy="76.364" rx="2" ry="1.909"></ellipse>
            <ellipse cx="56" cy="76.364" rx="2" ry="1.909"></ellipse>
            <ellipse cx="56" cy="82.091" rx="2" ry="1.909"></ellipse>
            <ellipse cx="62" cy="70.636" rx="2" ry="1.909"></ellipse>
            <ellipse cx="68" cy="70.636" rx="2" ry="1.909"></ellipse>
            <ellipse cx="62" cy="76.364" rx="2" ry="1.909"></ellipse>
            <ellipse cx="62" cy="82.091" rx="2" ry="1.909"></ellipse>
            <ellipse cx="68" cy="82.091" rx="2" ry="1.909"></ellipse>
            <ellipse cx="74" cy="70.636" rx="2" ry="1.909"></ellipse>
            <ellipse cx="74" cy="76.364" rx="2" ry="1.909"></ellipse>
            <ellipse cx="74" cy="87.818" rx="2" ry="1.909"></ellipse>
            <ellipse cx="80" cy="87.818" rx="2" ry="1.909"></ellipse>
            <ellipse cx="80" cy="93.545" rx="2" ry="1.909"></ellipse>
            <ellipse cx="74" cy="99.273" rx="2" ry="1.909"></ellipse>
            <ellipse cx="80" cy="99.273" rx="2" ry="1.909"></ellipse>
            <ellipse cx="80" cy="105" rx="2" ry="1.909"></ellipse>
            <ellipse cx="80" cy="133.636" rx="2" ry="1.909"></ellipse>
            <ellipse cx="86" cy="82.091" rx="2" ry="1.909"></ellipse>
            <ellipse cx="86" cy="87.818" rx="2" ry="1.909"></ellipse>
            <ellipse cx="92" cy="87.818" rx="2" ry="1.909"></ellipse>
            <ellipse cx="86" cy="93.545" rx="2" ry="1.909"></ellipse>
            <ellipse cx="92" cy="93.545" rx="2" ry="1.909"></ellipse>
            <ellipse cx="86" cy="99.273" rx="2" ry="1.909"></ellipse>
            <ellipse cx="92" cy="99.273" rx="2" ry="1.909"></ellipse>
            <ellipse cx="86" cy="105" rx="2" ry="1.909"></ellipse>
            <ellipse cx="92" cy="105" rx="2" ry="1.909"></ellipse>
            <ellipse cx="86" cy="110.727" rx="2" ry="1.909"></ellipse>
            <ellipse cx="92" cy="110.727" rx="2" ry="1.909"></ellipse>
            <ellipse cx="86" cy="116.455" rx="2" ry="1.909"></ellipse>
            <ellipse cx="92" cy="116.455" rx="2" ry="1.909"></ellipse>
            <ellipse cx="86" cy="122.182" rx="2" ry="1.909"></ellipse>
            <ellipse cx="92" cy="122.182" rx="2" ry="1.909"></ellipse>
            <ellipse cx="86" cy="127.909" rx="2" ry="1.909"></ellipse>
            <ellipse cx="92" cy="127.909" rx="2" ry="1.909"></ellipse>
            <ellipse cx="86" cy="133.636" rx="2" ry="1.909"></ellipse>
            <ellipse cx="92" cy="133.636" rx="2" ry="1.909"></ellipse>
            <ellipse cx="98" cy="93.545" rx="2" ry="1.909"></ellipse>
            <ellipse cx="104" cy="93.545" rx="2" ry="1.909"></ellipse>
            <ellipse cx="98" cy="99.273" rx="2" ry="1.909"></ellipse>
            <ellipse cx="104" cy="99.273" rx="2" ry="1.909"></ellipse>
            <ellipse cx="98" cy="105" rx="2" ry="1.909"></ellipse>
            <ellipse cx="104" cy="105" rx="2" ry="1.909"></ellipse>
            <ellipse cx="98" cy="110.727" rx="2" ry="1.909"></ellipse>
            <ellipse cx="104" cy="110.727" rx="2" ry="1.909"></ellipse>
            <ellipse cx="98" cy="116.455" rx="2" ry="1.909"></ellipse>
            <ellipse cx="104" cy="116.455" rx="2" ry="1.909"></ellipse>
            <ellipse cx="98" cy="122.182" rx="2" ry="1.909"></ellipse>
            <ellipse cx="110" cy="99.273" rx="2" ry="1.909"></ellipse>
            <ellipse cx="110" cy="105" rx="2" ry="1.909"></ellipse>
            <ellipse cx="110" cy="110.727" rx="2" ry="1.909"></ellipse>
            <ellipse cx="128" cy="82.091" rx="2" ry="1.909"></ellipse>
            <ellipse cx="134" cy="70.636" rx="2" ry="1.909"></ellipse>
            <ellipse cx="140" cy="70.636" rx="2" ry="1.909"></ellipse>
            <ellipse cx="134" cy="76.364" rx="2" ry="1.909"></ellipse>
            <ellipse cx="140" cy="76.364" rx="2" ry="1.909"></ellipse>
            <ellipse cx="134" cy="82.091" rx="2" ry="1.909"></ellipse>
            <ellipse cx="140" cy="82.091" rx="2" ry="1.909"></ellipse>
            <ellipse cx="134" cy="87.818" rx="2" ry="1.909"></ellipse>
            <ellipse cx="140" cy="87.818" rx="2" ry="1.909"></ellipse>
            <ellipse cx="134" cy="93.545" rx="2" ry="1.909"></ellipse>
            <ellipse cx="140" cy="93.545" rx="2" ry="1.909"></ellipse>
            <ellipse cx="146" cy="70.636" rx="2" ry="1.909"></ellipse>
            <ellipse cx="152" cy="70.636" rx="2" ry="1.909"></ellipse>
            <ellipse cx="146" cy="76.364" rx="2" ry="1.909"></ellipse>
            <ellipse cx="152" cy="76.364" rx="2" ry="1.909"></ellipse>
            <ellipse cx="146" cy="82.091" rx="2" ry="1.909"></ellipse>
            <ellipse cx="152" cy="82.091" rx="2" ry="1.909"></ellipse>
            <ellipse cx="146" cy="87.818" rx="2" ry="1.909"></ellipse>
            <ellipse cx="152" cy="87.818" rx="2" ry="1.909"></ellipse>
            <ellipse cx="146" cy="93.545" rx="2" ry="1.909"></ellipse>
            <ellipse cx="152" cy="93.545" rx="2" ry="1.909"></ellipse>
            <ellipse cx="158" cy="70.636" rx="2" ry="1.909"></ellipse>
            <ellipse cx="164" cy="70.636" rx="2" ry="1.909"></ellipse>
            <ellipse cx="158" cy="76.364" rx="2" ry="1.909"></ellipse>
            <ellipse cx="164" cy="76.364" rx="2" ry="1.909"></ellipse>
            <ellipse cx="158" cy="82.091" rx="2" ry="1.909"></ellipse>
            <ellipse cx="164" cy="82.091" rx="2" ry="1.909"></ellipse>
            <ellipse cx="158" cy="87.818" rx="2" ry="1.909"></ellipse>
            <ellipse cx="164" cy="87.818" rx="2" ry="1.909"></ellipse>
            <ellipse cx="158" cy="93.545" rx="2" ry="1.909"></ellipse>
            <ellipse cx="164" cy="93.545" rx="2" ry="1.909"></ellipse>
            <ellipse cx="158" cy="99.273" rx="2" ry="1.909"></ellipse>
            <ellipse cx="164" cy="99.273" rx="2" ry="1.909"></ellipse>
            <ellipse cx="158" cy="105" rx="2" ry="1.909"></ellipse>
            <ellipse cx="164" cy="105" rx="2" ry="1.909"></ellipse>
            <ellipse cx="158" cy="110.727" rx="2" ry="1.909"></ellipse>
            <ellipse cx="164" cy="110.727" rx="2" ry="1.909"></ellipse>
            <ellipse cx="158" cy="116.455" rx="2" ry="1.909"></ellipse>
            <ellipse cx="164" cy="116.455" rx="2" ry="1.909"></ellipse>
            <ellipse cx="164" cy="122.182" rx="2" ry="1.909"></ellipse>
            <ellipse cx="170" cy="70.636" rx="2" ry="1.909"></ellipse>
            <ellipse cx="176" cy="70.636" rx="2" ry="1.909"></ellipse>
            <ellipse cx="170" cy="76.364" rx="2" ry="1.909"></ellipse>
            <ellipse cx="170" cy="82.091" rx="2" ry="1.909"></ellipse>
            <ellipse cx="176" cy="82.091" rx="2" ry="1.909"></ellipse>
            <ellipse cx="170" cy="87.818" rx="2" ry="1.909"></ellipse>
            <ellipse cx="176" cy="87.818" rx="2" ry="1.909"></ellipse>
            <ellipse cx="170" cy="93.545" rx="2" ry="1.909"></ellipse>
            <ellipse cx="176" cy="93.545" rx="2" ry="1.909"></ellipse>
            <ellipse cx="170" cy="99.273" rx="2" ry="1.909"></ellipse>
            <ellipse cx="176" cy="99.273" rx="2" ry="1.909"></ellipse>
            <ellipse cx="170" cy="105" rx="2" ry="1.909"></ellipse>
            <ellipse cx="176" cy="105" rx="2" ry="1.909"></ellipse>
            <ellipse cx="170" cy="110.727" rx="2" ry="1.909"></ellipse>
            <ellipse cx="176" cy="110.727" rx="2" ry="1.909"></ellipse>
            <ellipse cx="170" cy="116.455" rx="2" ry="1.909"></ellipse>
            <ellipse cx="170" cy="122.182" rx="2" ry="1.909"></ellipse>
            <ellipse cx="182" cy="70.636" rx="2" ry="1.909"></ellipse>
            <ellipse cx="188" cy="70.636" rx="2" ry="1.909"></ellipse>
            <ellipse cx="182" cy="76.364" rx="2" ry="1.909"></ellipse>
            <ellipse cx="188" cy="76.364" rx="2" ry="1.909"></ellipse>
            <ellipse cx="188" cy="82.091" rx="2" ry="1.909"></ellipse>
            <ellipse cx="182" cy="87.818" rx="2" ry="1.909"></ellipse>
            <ellipse cx="182" cy="93.545" rx="2" ry="1.909"></ellipse>
            <ellipse cx="188" cy="105" rx="2" ry="1.909"></ellipse>
            <ellipse cx="182" cy="110.727" rx="2" ry="1.909"></ellipse>
            <ellipse cx="182" cy="116.455" rx="2" ry="1.909"></ellipse>
            <ellipse cx="194" cy="7.636" rx="2" ry="1.909"></ellipse>
            <ellipse cx="194" cy="19.091" rx="2" ry="1.909"></ellipse>
            <ellipse cx="194" cy="24.818" rx="2" ry="1.909"></ellipse>
            <ellipse cx="194" cy="30.545" rx="2" ry="1.909"></ellipse>
            <ellipse cx="200" cy="30.545" rx="2" ry="1.909"></ellipse>
            <ellipse cx="194" cy="36.273" rx="2" ry="1.909"></ellipse>
            <ellipse cx="200" cy="36.273" rx="2" ry="1.909"></ellipse>
            <ellipse cx="194" cy="42" rx="2" ry="1.909"></ellipse>
            <ellipse cx="200" cy="42" rx="2" ry="1.909"></ellipse>
            <ellipse cx="194" cy="47.727" rx="2" ry="1.909"></ellipse>
            <ellipse cx="200" cy="47.727" rx="2" ry="1.909"></ellipse>
            <ellipse cx="194" cy="53.455" rx="2" ry="1.909"></ellipse>
            <ellipse cx="200" cy="53.455" rx="2" ry="1.909"></ellipse>
            <ellipse cx="194" cy="59.182" rx="2" ry="1.909"></ellipse>
            <ellipse cx="200" cy="59.182" rx="2" ry="1.909"></ellipse>
            <ellipse cx="194" cy="64.909" rx="2" ry="1.909"></ellipse>
            <ellipse cx="200" cy="64.909" rx="2" ry="1.909"></ellipse>
            <ellipse cx="206" cy="24.818" rx="2" ry="1.909"></ellipse>
            <ellipse cx="212" cy="24.818" rx="2" ry="1.909"></ellipse>
            <ellipse cx="206" cy="30.545" rx="2" ry="1.909"></ellipse>
            <ellipse cx="212" cy="30.545" rx="2" ry="1.909"></ellipse>
            <ellipse cx="206" cy="36.273" rx="2" ry="1.909"></ellipse>
            <ellipse cx="212" cy="36.273" rx="2" ry="1.909"></ellipse>
            <ellipse cx="206" cy="42" rx="2" ry="1.909"></ellipse>
            <ellipse cx="212" cy="42" rx="2" ry="1.909"></ellipse>
            <ellipse cx="206" cy="47.727" rx="2" ry="1.909"></ellipse>
            <ellipse cx="212" cy="47.727" rx="2" ry="1.909"></ellipse>
            <ellipse cx="206" cy="53.455" rx="2" ry="1.909"></ellipse>
            <ellipse cx="212" cy="53.455" rx="2" ry="1.909"></ellipse>
            <ellipse cx="206" cy="59.182" rx="2" ry="1.909"></ellipse>
            <ellipse cx="212" cy="59.182" rx="2" ry="1.909"></ellipse>
            <ellipse cx="206" cy="64.909" rx="2" ry="1.909"></ellipse>
            <ellipse cx="212" cy="64.909" rx="2" ry="1.909"></ellipse>
            <ellipse cx="224" cy="7.636" rx="2" ry="1.909"></ellipse>
            <ellipse cx="218" cy="19.091" rx="2" ry="1.909"></ellipse>
            <ellipse cx="224" cy="19.091" rx="2" ry="1.909"></ellipse>
            <ellipse cx="218" cy="24.818" rx="2" ry="1.909"></ellipse>
            <ellipse cx="224" cy="24.818" rx="2" ry="1.909"></ellipse>
            <ellipse cx="218" cy="30.545" rx="2" ry="1.909"></ellipse>
            <ellipse cx="224" cy="30.545" rx="2" ry="1.909"></ellipse>
            <ellipse cx="218" cy="36.273" rx="2" ry="1.909"></ellipse>
            <ellipse cx="224" cy="36.273" rx="2" ry="1.909"></ellipse>
            <ellipse cx="218" cy="42" rx="2" ry="1.909"></ellipse>
            <ellipse cx="224" cy="42" rx="2" ry="1.909"></ellipse>
            <ellipse cx="218" cy="47.727" rx="2" ry="1.909"></ellipse>
            <ellipse cx="224" cy="47.727" rx="2" ry="1.909"></ellipse>
            <ellipse cx="218" cy="53.455" rx="2" ry="1.909"></ellipse>
            <ellipse cx="224" cy="53.455" rx="2" ry="1.909"></ellipse>
            <ellipse cx="218" cy="59.182" rx="2" ry="1.909"></ellipse>
            <ellipse cx="224" cy="59.182" rx="2" ry="1.909"></ellipse>
            <ellipse cx="218" cy="64.909" rx="2" ry="1.909"></ellipse>
            <ellipse cx="224" cy="64.909" rx="2" ry="1.909"></ellipse>
            <ellipse cx="230" cy="13.364" rx="2" ry="1.909"></ellipse>
            <ellipse cx="236" cy="13.364" rx="2" ry="1.909"></ellipse>
            <ellipse cx="230" cy="19.091" rx="2" ry="1.909"></ellipse>
            <ellipse cx="236" cy="19.091" rx="2" ry="1.909"></ellipse>
            <ellipse cx="230" cy="24.818" rx="2" ry="1.909"></ellipse>
            <ellipse cx="236" cy="24.818" rx="2" ry="1.909"></ellipse>
            <ellipse cx="230" cy="30.545" rx="2" ry="1.909"></ellipse>
            <ellipse cx="236" cy="30.545" rx="2" ry="1.909"></ellipse>
            <ellipse cx="230" cy="36.273" rx="2" ry="1.909"></ellipse>
            <ellipse cx="236" cy="36.273" rx="2" ry="1.909"></ellipse>
            <ellipse cx="230" cy="42" rx="2" ry="1.909"></ellipse>
            <ellipse cx="236" cy="42" rx="2" ry="1.909"></ellipse>
            <ellipse cx="230" cy="47.727" rx="2" ry="1.909"></ellipse>
            <ellipse cx="236" cy="47.727" rx="2" ry="1.909"></ellipse>
            <ellipse cx="230" cy="53.455" rx="2" ry="1.909"></ellipse>
            <ellipse cx="236" cy="53.455" rx="2" ry="1.909"></ellipse>
            <ellipse cx="230" cy="59.182" rx="2" ry="1.909"></ellipse>
            <ellipse cx="236" cy="59.182" rx="2" ry="1.909"></ellipse>
            <ellipse cx="230" cy="64.909" rx="2" ry="1.909"></ellipse>
            <ellipse cx="236" cy="64.909" rx="2" ry="1.909"></ellipse>
            <ellipse cx="242" cy="19.091" rx="2" ry="1.909"></ellipse>
            <ellipse cx="242" cy="24.818" rx="2" ry="1.909"></ellipse>
            <ellipse cx="248" cy="24.818" rx="2" ry="1.909"></ellipse>
            <ellipse cx="242" cy="30.545" rx="2" ry="1.909"></ellipse>
            <ellipse cx="248" cy="30.545" rx="2" ry="1.909"></ellipse>
            <ellipse cx="242" cy="36.273" rx="2" ry="1.909"></ellipse>
            <ellipse cx="248" cy="36.273" rx="2" ry="1.909"></ellipse>
            <ellipse cx="242" cy="42" rx="2" ry="1.909"></ellipse>
            <ellipse cx="248" cy="42" rx="2" ry="1.909"></ellipse>
            <ellipse cx="242" cy="47.727" rx="2" ry="1.909"></ellipse>
            <ellipse cx="248" cy="47.727" rx="2" ry="1.909"></ellipse>
            <ellipse cx="242" cy="53.455" rx="2" ry="1.909"></ellipse>
            <ellipse cx="248" cy="53.455" rx="2" ry="1.909"></ellipse>
            <ellipse cx="242" cy="59.182" rx="2" ry="1.909"></ellipse>
            <ellipse cx="248" cy="59.182" rx="2" ry="1.909"></ellipse>
            <ellipse cx="242" cy="64.909" rx="2" ry="1.909"></ellipse>
            <ellipse cx="260" cy="19.091" rx="2" ry="1.909"></ellipse>
            <ellipse cx="254" cy="24.818" rx="2" ry="1.909"></ellipse>
            <ellipse cx="260" cy="24.818" rx="2" ry="1.909"></ellipse>
            <ellipse cx="254" cy="30.545" rx="2" ry="1.909"></ellipse>
            <ellipse cx="260" cy="30.545" rx="2" ry="1.909"></ellipse>
            <ellipse cx="254" cy="36.273" rx="2" ry="1.909"></ellipse>
            <ellipse cx="260" cy="36.273" rx="2" ry="1.909"></ellipse>
            <ellipse cx="254" cy="42" rx="2" ry="1.909"></ellipse>
            <ellipse cx="260" cy="42" rx="2" ry="1.909"></ellipse>
            <ellipse cx="254" cy="47.727" rx="2" ry="1.909"></ellipse>
            <ellipse cx="260" cy="47.727" rx="2" ry="1.909"></ellipse>
            <ellipse cx="254" cy="53.455" rx="2" ry="1.909"></ellipse>
            <ellipse cx="260" cy="53.455" rx="2" ry="1.909"></ellipse>
            <ellipse cx="254" cy="59.182" rx="2" ry="1.909"></ellipse>
            <ellipse cx="254" cy="64.909" rx="2" ry="1.909"></ellipse>
            <ellipse cx="266" cy="19.091" rx="2" ry="1.909"></ellipse>
            <ellipse cx="266" cy="24.818" rx="2" ry="1.909"></ellipse>
            <ellipse cx="272" cy="24.818" rx="2" ry="1.909"></ellipse>
            <ellipse cx="266" cy="30.545" rx="2" ry="1.909"></ellipse>
            <ellipse cx="272" cy="30.545" rx="2" ry="1.909"></ellipse>
            <ellipse cx="266" cy="36.273" rx="2" ry="1.909"></ellipse>
            <ellipse cx="272" cy="36.273" rx="2" ry="1.909"></ellipse>
            <ellipse cx="266" cy="42" rx="2" ry="1.909"></ellipse>
            <ellipse cx="272" cy="42" rx="2" ry="1.909"></ellipse>
            <ellipse cx="266" cy="47.727" rx="2" ry="1.909"></ellipse>
            <ellipse cx="266" cy="59.182" rx="2" ry="1.909"></ellipse>
            <ellipse cx="266" cy="64.909" rx="2" ry="1.909"></ellipse>
            <ellipse cx="278" cy="24.818" rx="2" ry="1.909"></ellipse>
            <ellipse cx="278" cy="30.545" rx="2" ry="1.909"></ellipse>
            <ellipse cx="284" cy="30.545" rx="2" ry="1.909"></ellipse>
            <ellipse cx="278" cy="36.273" rx="2" ry="1.909"></ellipse>
            <ellipse cx="284" cy="36.273" rx="2" ry="1.909"></ellipse>
            <ellipse cx="278" cy="42" rx="2" ry="1.909"></ellipse>
            <ellipse cx="284" cy="42" rx="2" ry="1.909"></ellipse>
            <ellipse cx="278" cy="47.727" rx="2" ry="1.909"></ellipse>
            <ellipse cx="296" cy="24.818" rx="2" ry="1.909"></ellipse>
            <ellipse cx="290" cy="30.545" rx="2" ry="1.909"></ellipse>
            <ellipse cx="296" cy="30.545" rx="2" ry="1.909"></ellipse>
            <ellipse cx="290" cy="36.273" rx="2" ry="1.909"></ellipse>
            <ellipse cx="296" cy="36.273" rx="2" ry="1.909"></ellipse>
            <ellipse cx="302" cy="30.545" rx="2" ry="1.909"></ellipse>
            <ellipse cx="194" cy="70.636" rx="2" ry="1.909"></ellipse>
            <ellipse cx="200" cy="70.636" rx="2" ry="1.909"></ellipse>
            <ellipse cx="194" cy="76.364" rx="2" ry="1.909"></ellipse>
            <ellipse cx="206" cy="70.636" rx="2" ry="1.909"></ellipse>
            <ellipse cx="212" cy="70.636" rx="2" ry="1.909"></ellipse>
            <ellipse cx="206" cy="76.364" rx="2" ry="1.909"></ellipse>
            <ellipse cx="212" cy="76.364" rx="2" ry="1.909"></ellipse>
            <ellipse cx="206" cy="82.091" rx="2" ry="1.909"></ellipse>
            <ellipse cx="212" cy="82.091" rx="2" ry="1.909"></ellipse>
            <ellipse cx="212" cy="87.818" rx="2" ry="1.909"></ellipse>
            <ellipse cx="218" cy="70.636" rx="2" ry="1.909"></ellipse>
            <ellipse cx="224" cy="70.636" rx="2" ry="1.909"></ellipse>
            <ellipse cx="218" cy="76.364" rx="2" ry="1.909"></ellipse>
            <ellipse cx="224" cy="76.364" rx="2" ry="1.909"></ellipse>
            <ellipse cx="230" cy="70.636" rx="2" ry="1.909"></ellipse>
            <ellipse cx="236" cy="70.636" rx="2" ry="1.909"></ellipse>
            <ellipse cx="230" cy="76.364" rx="2" ry="1.909"></ellipse>
            <ellipse cx="236" cy="76.364" rx="2" ry="1.909"></ellipse>
            <ellipse cx="230" cy="82.091" rx="2" ry="1.909"></ellipse>
            <ellipse cx="236" cy="82.091" rx="2" ry="1.909"></ellipse>
            <ellipse cx="236" cy="87.818" rx="2" ry="1.909"></ellipse>
            <ellipse cx="230" cy="93.545" rx="2" ry="1.909"></ellipse>
            <ellipse cx="230" cy="99.273" rx="2" ry="1.909"></ellipse>
            <ellipse cx="236" cy="99.273" rx="2" ry="1.909"></ellipse>
            <ellipse cx="242" cy="70.636" rx="2" ry="1.909"></ellipse>
            <ellipse cx="248" cy="70.636" rx="2" ry="1.909"></ellipse>
            <ellipse cx="242" cy="76.364" rx="2" ry="1.909"></ellipse>
            <ellipse cx="248" cy="82.091" rx="2" ry="1.909"></ellipse>
            <ellipse cx="248" cy="87.818" rx="2" ry="1.909"></ellipse>
            <ellipse cx="242" cy="93.545" rx="2" ry="1.909"></ellipse>
            <ellipse cx="248" cy="93.545" rx="2" ry="1.909"></ellipse>
            <ellipse cx="242" cy="99.273" rx="2" ry="1.909"></ellipse>
            <ellipse cx="248" cy="99.273" rx="2" ry="1.909"></ellipse>
            <ellipse cx="248" cy="110.727" rx="2" ry="1.909"></ellipse>
            <ellipse cx="242" cy="116.455" rx="2" ry="1.909"></ellipse>
            <ellipse cx="248" cy="116.455" rx="2" ry="1.909"></ellipse>
            <ellipse cx="242" cy="122.182" rx="2" ry="1.909"></ellipse>
            <ellipse cx="248" cy="122.182" rx="2" ry="1.909"></ellipse>
            <ellipse cx="260" cy="99.273" rx="2" ry="1.909"></ellipse>
            <ellipse cx="254" cy="110.727" rx="2" ry="1.909"></ellipse>
            <ellipse cx="260" cy="110.727" rx="2" ry="1.909"></ellipse>
            <ellipse cx="254" cy="116.455" rx="2" ry="1.909"></ellipse>
            <ellipse cx="260" cy="116.455" rx="2" ry="1.909"></ellipse>
            <ellipse cx="254" cy="122.182" rx="2" ry="1.909"></ellipse>
            <ellipse cx="260" cy="122.182" rx="2" ry="1.909"></ellipse>
            <ellipse cx="260" cy="127.909" rx="2" ry="1.909"></ellipse>
            <ellipse cx="266" cy="99.273" rx="2" ry="1.909"></ellipse>
            <ellipse cx="272" cy="99.273" rx="2" ry="1.909"></ellipse>
            <ellipse cx="266" cy="105" rx="2" ry="1.909"></ellipse>
            <ellipse cx="266" cy="110.727" rx="2" ry="1.909"></ellipse>
            <ellipse cx="266" cy="116.455" rx="2" ry="1.909"></ellipse>
            <ellipse cx="272" cy="116.455" rx="2" ry="1.909"></ellipse>
            <ellipse cx="266" cy="122.182" rx="2" ry="1.909"></ellipse>
            <ellipse cx="272" cy="122.182" rx="2" ry="1.909"></ellipse>
            <ellipse cx="266" cy="127.909" rx="2" ry="1.909"></ellipse>
            <ellipse cx="272" cy="127.909" rx="2" ry="1.909"></ellipse>
            <ellipse cx="272" cy="133.636" rx="2" ry="1.909"></ellipse>
            <ellipse cx="290" cy="127.909" rx="2" ry="1.909"></ellipse>
            <ellipse cx="296" cy="127.909" rx="2" ry="1.909"></ellipse>
            <ellipse cx="290" cy="133.636" rx="2" ry="1.909"></ellipse>
            <ellipse cx="80" cy="139.364" rx="2" ry="1.909"></ellipse>
            <ellipse cx="86" cy="139.364" rx="2" ry="1.909"></ellipse>
            <ellipse cx="86" cy="145.091" rx="2" ry="1.909"></ellipse>
        </g>
        <path d="M139 40s-4-9.79-4-12a4 4 0 1 1 8 0c0 2.21-4 12-4 12zm0-10a2 2 0 1 0 0-4 2 2 0 0 0 0 4zM51 53s-4-9.79-4-12a4 4 0 1 1 8 0c0 2.21-4 12-4 12zm0-10a2 2 0 1 0 0-4 2 2 0 0 0 0 4zM151 43s-4-9.79-4-12a4 4 0 1 1 8 0c0 2.21-4 12-4 12zm0-10a2 2 0 1 0 0-4 2 2 0 0 0 0 4zM263 129s-4-9.79-4-12a4 4 0 1 1 8 0c0 2.21-4 12-4 12zm0-10a2 2 0 1 0 0-4 2 2 0 0 0 0 4zM161 33s-4-9.79-4-12a4 4 0 1 1 8 0c0 2.21-4 12-4 12zm0-10a2 2 0 1 0 0-4 2 2 0 0 0 0 4zM101 103s-4-9.79-4-12a4 4 0 1 1 8 0c0 2.21-4 12-4 12zm0-10a2 2 0 1 0 0-4 2 2 0 0 0 0 4z"
              fill="#0f1c33"></path>
    </g>
</svg>